<svg width="371" height="129" viewBox="0 0 371 129" fill="none" xmlns="http://www.w3.org/2000/svg">
<path d="M370.611 37.0758C366.45 42.042 360.593 45.3814 353.23 46.974C350.883 47.4878 348.435 47.8132 345.917 47.933C341.653 48.1557 337.183 47.8474 332.731 47.0083C327.354 45.9808 322.045 44.3881 316.925 42.8298C309.578 40.6206 301.991 38.3259 294.114 37.7094C291.528 37.5039 288.942 37.4868 286.408 37.6238C262.998 38.8739 241.694 53.55 227.378 66.3595C219.089 73.7918 211.297 81.9947 203.762 89.9407C194.309 99.9074 184.548 110.217 173.691 119.053C168.947 122.906 163.861 125.835 159.375 127.307C157.337 127.975 155.419 128.352 153.638 128.455C150.384 128.626 147.558 127.873 145.144 126.194C144.116 125.475 143.26 124.636 142.541 123.711L128.224 105.113C128.926 106.038 129.782 106.877 130.827 107.597C133.225 109.275 136.067 110.045 139.321 109.857C141.119 109.754 143.037 109.378 145.058 108.71C149.545 107.254 154.631 104.309 159.375 100.455C170.232 91.636 179.993 81.3268 189.446 71.3429C196.981 63.3969 204.773 55.1769 213.061 47.7618C227.378 34.9523 248.681 20.2761 272.091 19.026C274.643 18.889 277.212 18.9061 279.797 19.1116C287.675 19.7281 295.261 22.0229 302.608 24.232C307.728 25.7904 313.037 27.383 318.414 28.4105C322.884 29.2668 327.336 29.575 331.601 29.3353C334.118 29.1983 336.567 28.8729 338.913 28.3763C346.294 26.7665 352.151 23.4272 356.295 18.478L370.611 37.0758Z" fill="url(#paint0_linear_208_81)"/>
<path d="M356.295 18.4607C352.133 23.427 346.277 26.7664 338.913 28.359C336.567 28.8727 334.118 29.1981 331.601 29.318C327.336 29.5406 322.867 29.2324 318.414 28.3933C313.037 27.3658 307.728 25.7731 302.608 24.2148C295.261 22.0056 287.675 19.7109 279.797 19.0944C277.212 18.8889 274.626 18.8718 272.091 19.0088C248.681 20.2589 227.378 34.935 213.061 47.7445C204.773 55.1768 196.981 63.3796 189.446 71.3256C179.993 81.2924 170.232 91.6016 159.374 100.438C154.631 104.291 149.545 107.22 145.058 108.692C143.02 109.36 141.102 109.737 139.321 109.84C136.067 110.011 133.242 109.258 130.827 107.579C129.799 106.86 128.943 106.021 128.224 105.096L114.01 86.6183C114.712 87.543 115.569 88.3821 116.613 89.1014C119.011 90.7796 121.854 91.5503 125.107 91.3619C126.905 91.2591 128.823 90.8824 130.844 90.2145C135.331 88.7589 140.417 85.8134 145.161 81.9774C156.018 73.158 165.779 62.8488 175.232 52.8649C182.767 44.9189 190.559 36.6989 198.848 29.2838C213.164 16.4743 234.468 1.79813 257.877 0.548002C260.429 0.411002 262.998 0.428127 265.584 0.633627C273.461 1.25013 281.047 3.54487 288.394 5.754C293.514 7.31237 298.823 8.905 304.201 9.9325C308.67 10.7888 313.123 11.097 317.387 10.8573C319.904 10.7203 322.353 10.3949 324.699 9.89825C332.08 8.2885 337.937 4.94913 342.081 0L356.295 18.4607Z" fill="url(#paint1_linear_208_81)"/>
<path d="M143.791 70.2638C144.493 71.1714 145.092 72.1646 145.572 73.2435C148.98 80.71 145.931 89.4095 143.003 97.8179C142.695 98.6913 142.386 99.5989 142.078 100.489C140.366 105.507 137.403 116.878 142.609 123.642L128.293 105.045C123.087 98.2803 126.066 86.9093 127.762 81.8916C128.07 81.0183 128.378 80.1106 128.686 79.2201C131.615 70.7946 134.663 62.0951 131.255 54.6458C130.759 53.5669 130.176 52.5908 129.474 51.666L143.791 70.2638Z" fill="url(#paint2_linear_208_81)"/>
<path d="M129.474 51.6659C130.176 52.5735 130.776 53.5667 131.255 54.6456C134.663 62.1121 131.615 70.8116 128.686 79.22C128.378 80.0934 128.07 81.001 127.762 81.8915C126.049 86.9091 123.087 98.2801 128.293 105.044L114.079 86.5666C108.873 79.8022 111.853 68.4312 113.548 63.4136C113.856 62.5402 114.164 61.6326 114.473 60.7421C117.401 52.3166 120.449 43.6171 117.041 36.1677C116.545 35.0889 115.963 34.1127 115.26 33.188L129.474 51.6659Z" fill="url(#paint3_linear_208_81)"/>
<path d="M143.705 70.3323C141.222 67.0957 137.386 64.8694 132.265 63.6878C128.84 62.9001 124.833 62.6089 120.569 62.8487C118.274 62.9685 115.911 63.2425 113.531 63.6535C79.5719 69.6302 48.0276 90.6425 29.0874 119.824L14.7709 101.226C33.7111 72.0448 65.2554 51.0324 99.2143 45.0558C101.595 44.6448 103.958 44.3708 106.253 44.2509C110.5 44.0283 114.507 44.3023 117.932 45.09C123.052 46.2717 126.871 48.4979 129.371 51.7345L143.705 70.3323Z" fill="url(#paint4_linear_208_81)"/>
<path d="M129.389 51.7344C126.905 48.4978 123.069 46.2715 117.949 45.0899C114.524 44.3021 110.517 44.011 106.27 44.2508C103.975 44.3707 101.612 44.6446 99.2315 45.0556C65.2726 51.0323 33.7283 72.0446 14.7881 101.226L0.574341 82.7478C19.5146 53.5668 51.0588 32.5544 85.0177 26.5778C87.3981 26.1668 89.7613 25.8928 92.0561 25.7729C96.3031 25.5503 100.31 25.8243 103.752 26.612C108.873 27.7937 112.692 30.0199 115.192 33.2565L129.389 51.7344Z" fill="url(#paint5_linear_208_81)"/>
<defs>
<linearGradient id="paint0_linear_208_81" x1="363.149" y1="6.85582" x2="118.191" y2="122.511" gradientUnits="userSpaceOnUse">
<stop stop-color="#FFD406"/>
<stop offset="0.4349" stop-color="#FDD206"/>
<stop offset="0.5915" stop-color="#F6CD06"/>
<stop offset="0.7032" stop-color="#EBC306"/>
<stop offset="0.7934" stop-color="#DAB505"/>
<stop offset="0.8698" stop-color="#C4A305"/>
<stop offset="0.884" stop-color="#BF9F05"/>
</linearGradient>
<linearGradient id="paint1_linear_208_81" x1="137.974" y1="92.5168" x2="334.866" y2="-6.50975" gradientUnits="userSpaceOnUse">
<stop offset="0.0180412" stop-color="#012953"/>
<stop offset="0.3763" stop-color="#01458C"/>
<stop offset="0.4303" stop-color="#014C9B"/>
<stop offset="0.5197" stop-color="#0155AD"/>
<stop offset="0.6142" stop-color="#015AB8"/>
<stop offset="0.7216" stop-color="#015CBB"/>
</linearGradient>
<linearGradient id="paint2_linear_208_81" x1="148.629" y1="67.6395" x2="114.099" y2="122.505" gradientUnits="userSpaceOnUse">
<stop stop-color="#776303"/>
<stop offset="0.1701" stop-color="#BF9F05"/>
<stop offset="0.1883" stop-color="#C6A405"/>
<stop offset="0.2718" stop-color="#DFB905"/>
<stop offset="0.3586" stop-color="#F1C806"/>
<stop offset="0.4501" stop-color="#FCD106"/>
<stop offset="0.5541" stop-color="#FFD406"/>
<stop offset="0.7214" stop-color="#FDD206"/>
<stop offset="0.8136" stop-color="#F5CB06"/>
<stop offset="0.8876" stop-color="#E7C006"/>
<stop offset="0.9516" stop-color="#D3B005"/>
<stop offset="1" stop-color="#BF9F05"/>
</linearGradient>
<linearGradient id="paint3_linear_208_81" x1="111.813" y1="92.6496" x2="125.209" y2="60.9873" gradientUnits="userSpaceOnUse">
<stop offset="0.0515464" stop-color="#012953"/>
<stop offset="0.1363" stop-color="#013468"/>
<stop offset="0.2912" stop-color="#01448A"/>
<stop offset="0.4197" stop-color="#014E9F"/>
<stop offset="0.5052" stop-color="#0152A6"/>
<stop offset="0.9974" stop-color="#01264D"/>
</linearGradient>
<linearGradient id="paint4_linear_208_81" x1="23.6599" y1="110.535" x2="145.797" y2="38.994" gradientUnits="userSpaceOnUse">
<stop stop-color="#FFD406"/>
<stop offset="0.3393" stop-color="#FDD206"/>
<stop offset="0.5266" stop-color="#F5CB06"/>
<stop offset="0.6767" stop-color="#E7C006"/>
<stop offset="0.8064" stop-color="#D3B005"/>
<stop offset="0.9046" stop-color="#BF9F05"/>
</linearGradient>
<linearGradient id="paint5_linear_208_81" x1="120.513" y1="36.0777" x2="-4.42309" y2="83.3195" gradientUnits="userSpaceOnUse">
<stop offset="0.0180412" stop-color="#012953"/>
<stop offset="0.3763" stop-color="#01458C"/>
<stop offset="0.4303" stop-color="#014C9B"/>
<stop offset="0.5197" stop-color="#0155AD"/>
<stop offset="0.6142" stop-color="#015AB8"/>
<stop offset="0.7216" stop-color="#015CBB"/>
</linearGradient>
</defs>
</svg>
