<svg width="22" height="22" viewBox="0 0 22 22" fill="none" xmlns="http://www.w3.org/2000/svg">
<path d="M17.696 2.19629H4.30385C3.1467 2.19629 2.19995 3.14303 2.19995 4.30015V6.36162H19.8V4.30015C19.8 3.14303 18.8532 2.19629 17.696 2.19629ZM4.81809 5.01549C4.41105 5.01549 4.08153 4.68597 4.08153 4.27893C4.08153 3.87189 4.41105 3.54237 4.81809 3.54237C5.21868 3.54237 5.5482 3.87189 5.5482 4.27893C5.5482 4.68597 5.21868 5.01549 4.81809 5.01549ZM7.01809 5.01549C6.61105 5.01549 6.28154 4.68597 6.28154 4.27893C6.28154 3.87189 6.61105 3.54237 7.01809 3.54237C7.41868 3.54237 7.7482 3.87189 7.7482 4.27893C7.7482 4.68597 7.41868 5.01549 7.01809 5.01549ZM9.21809 5.01549C8.81105 5.01549 8.48153 4.68597 8.48153 4.27893C8.48153 3.87189 8.81105 3.54237 9.21809 3.54237C9.61869 3.54237 9.9482 3.87189 9.9482 4.27893C9.9482 4.68597 9.61869 5.01549 9.21809 5.01549Z" fill="#FFEE0E"/>
<path d="M2.19995 17.6997C2.19995 18.8569 3.14674 19.8037 4.3039 19.8037H17.696C18.8532 19.8037 19.8 18.8569 19.8 17.6998V7.82837H2.19995V17.6997ZM7.91994 15.4037C8.38195 14.5677 9.17396 13.9443 10.1199 13.7023C9.65064 13.409 9.33532 12.881 9.33532 12.2797C9.33532 11.363 10.0759 10.615 11 10.615C11.9166 10.615 12.6646 11.363 12.6646 12.2797C12.6646 12.881 12.342 13.4164 11.8653 13.7097C12.848 13.959 13.662 14.6263 14.1093 15.5137C14.4613 16.203 13.904 17.017 13.134 17.017H8.85129C8.02262 17.017 7.52396 16.1297 7.91994 15.4037Z" fill="#FFEE0E"/>
</svg>
