<svg width="64" height="65" viewBox="0 0 64 65" fill="none" xmlns="http://www.w3.org/2000/svg">
<path d="M56.263 27.7158C56.116 27.6238 55.931 27.6148 55.777 27.6938L44.5 33.3328V26.1418C44.5 25.8658 44.276 25.6418 44 25.6418H40.359C40.446 25.1538 40.5 24.6548 40.5 24.1418C40.5 19.4548 36.687 15.6418 32 15.6418C27.747 15.6418 24.224 18.7848 23.606 22.8688C22.477 20.9418 20.39 19.6418 18 19.6418C14.585 19.6418 11.783 22.2908 11.525 25.6418H8C7.724 25.6418 7.5 25.8658 7.5 26.1418V48.1418C7.5 48.4178 7.724 48.6418 8 48.6418H44C44.276 48.6418 44.5 48.4178 44.5 48.1418V42.9508L55.776 48.5898C55.847 48.6238 55.924 48.6418 56 48.6418C56.092 48.6418 56.183 48.6168 56.263 48.5678C56.41 48.4758 56.5 48.3148 56.5 48.1418V28.1418C56.5 27.9678 56.41 27.8068 56.263 27.7158ZM32 16.6418C36.136 16.6418 39.5 20.0058 39.5 24.1418C39.5 28.2778 36.136 31.6418 32 31.6418C27.864 31.6418 24.5 28.2778 24.5 24.1418C24.5 20.0058 27.864 16.6418 32 16.6418ZM18 20.6418C21.033 20.6418 23.5 23.1088 23.5 26.1418C23.5 29.1738 21.033 31.6418 18 31.6418C14.967 31.6418 12.5 29.1748 12.5 26.1418C12.5 23.1098 14.967 20.6418 18 20.6418ZM43.5 47.6418H8.5V26.6418H11.525C11.782 29.9928 14.584 32.6418 18 32.6418C21.04 32.6418 23.592 30.5408 24.299 27.7168C25.652 30.6208 28.591 32.6418 32 32.6418C35.816 32.6418 39.054 30.1128 40.124 26.6418H43.5V34.1418V42.1418V47.6418ZM55.5 47.3328L44.5 41.8328V34.4498L55.5 28.9498V47.3328Z" fill="#717171"/>
<path d="M16 41.6418H14C13.724 41.6418 13.5 41.8658 13.5 42.1418C13.5 42.4178 13.724 42.6418 14 42.6418H16C16.276 42.6418 16.5 42.4178 16.5 42.1418C16.5 41.8658 16.276 41.6418 16 41.6418Z" fill="#FFEE0E"/>
<path d="M24 41.6418H22C21.724 41.6418 21.5 41.8658 21.5 42.1418C21.5 42.4178 21.724 42.6418 22 42.6418H24C24.276 42.6418 24.5 42.4178 24.5 42.1418C24.5 41.8658 24.276 41.6418 24 41.6418Z" fill="#FFEE0E"/>
<path d="M32 41.6418H30C29.724 41.6418 29.5 41.8658 29.5 42.1418C29.5 42.4178 29.724 42.6418 30 42.6418H32C32.276 42.6418 32.5 42.4178 32.5 42.1418C32.5 41.8658 32.276 41.6418 32 41.6418Z" fill="#FFEE0E"/>
</svg>
