<svg width="64" height="65" viewBox="0 0 64 65" fill="none" xmlns="http://www.w3.org/2000/svg">
<path d="M18.211 48.0378C19.57 47.2618 20.5 45.8158 20.5 44.1418C20.5 41.6608 18.481 39.6418 16 39.6418C13.519 39.6418 11.5 41.6608 11.5 44.1418C11.5 45.8158 12.43 47.2618 13.789 48.0378C11.292 48.9448 9.5 51.3348 9.5 54.1418C9.5 54.4178 9.724 54.6418 10 54.6418C10.276 54.6418 10.5 54.4178 10.5 54.1418C10.5 51.1098 12.967 48.6418 16 48.6418C19.033 48.6418 21.5 51.1098 21.5 54.1418C21.5 54.4178 21.724 54.6418 22 54.6418C22.276 54.6418 22.5 54.4178 22.5 54.1418C22.5 51.3348 20.708 48.9448 18.211 48.0378ZM12.5 44.1418C12.5 42.2118 14.07 40.6418 16 40.6418C17.93 40.6418 19.5 42.2118 19.5 44.1418C19.5 46.0718 17.93 47.6418 16 47.6418C14.07 47.6418 12.5 46.0718 12.5 44.1418Z" fill="#717171"/>
<path d="M34.211 16.0378C35.57 15.2618 36.5 13.8158 36.5 12.1418C36.5 9.66085 34.481 7.64185 32 7.64185C29.519 7.64185 27.5 9.66085 27.5 12.1418C27.5 13.8158 28.43 15.2618 29.789 16.0378C27.292 16.9448 25.5 19.3348 25.5 22.1418C25.5 22.4178 25.724 22.6418 26 22.6418C26.276 22.6418 26.5 22.4178 26.5 22.1418C26.5 19.1088 28.967 16.6418 32 16.6418C35.032 16.6418 37.5 19.1088 37.5 22.1418C37.5 22.4178 37.724 22.6418 38 22.6418C38.276 22.6418 38.5 22.4178 38.5 22.1418C38.5 19.3348 36.708 16.9448 34.211 16.0378ZM28.5 12.1418C28.5 10.2118 30.07 8.64185 32 8.64185C33.93 8.64185 35.5 10.2118 35.5 12.1418C35.5 14.0718 33.93 15.6418 32 15.6418C30.07 15.6418 28.5 14.0718 28.5 12.1418Z" fill="#717171"/>
<path d="M50.211 48.0378C51.57 47.2618 52.5 45.8158 52.5 44.1418C52.5 41.6608 50.481 39.6418 48 39.6418C45.519 39.6418 43.5 41.6608 43.5 44.1418C43.5 45.8158 44.43 47.2618 45.789 48.0378C43.292 48.9448 41.5 51.3348 41.5 54.1418C41.5 54.4178 41.724 54.6418 42 54.6418C42.276 54.6418 42.5 54.4178 42.5 54.1418C42.5 51.1098 44.968 48.6418 48 48.6418C51.032 48.6418 53.5 51.1098 53.5 54.1418C53.5 54.4178 53.724 54.6418 54 54.6418C54.276 54.6418 54.5 54.4178 54.5 54.1418C54.5 51.3348 52.708 48.9448 50.211 48.0378ZM44.5 44.1418C44.5 42.2118 46.07 40.6418 48 40.6418C49.93 40.6418 51.5 42.2118 51.5 44.1418C51.5 46.0718 49.93 47.6418 48 47.6418C46.07 47.6418 44.5 46.0718 44.5 44.1418Z" fill="#717171"/>
<path d="M32.5 33.9348V26.1418C32.5 25.8658 32.276 25.6418 32 25.6418C31.724 25.6418 31.5 25.8658 31.5 26.1418V33.9348L25.646 39.7888C25.451 39.9838 25.451 40.3008 25.646 40.4958C25.744 40.5928 25.872 40.6418 26 40.6418C26.128 40.6418 26.256 40.5928 26.354 40.4958L32 34.8488L37.646 40.4948C37.744 40.5928 37.872 40.6418 38 40.6418C38.128 40.6418 38.256 40.5928 38.354 40.4958C38.549 40.3008 38.549 39.9838 38.354 39.7888L32.5 33.9348Z" fill="#FFEE0E"/>
</svg>
