<svg width="64" height="64" viewBox="0 0 64 64" fill="none" xmlns="http://www.w3.org/2000/svg">
<path d="M56 15.5H8C7.724 15.5 7.5 15.724 7.5 16V48C7.5 48.276 7.724 48.5 8 48.5H31.5V53.5H24C23.724 53.5 23.5 53.724 23.5 54C23.5 54.276 23.724 54.5 24 54.5H40C40.276 54.5 40.5 54.276 40.5 54C40.5 53.724 40.276 53.5 40 53.5H32.5V48.5H56C56.276 48.5 56.5 48.276 56.5 48V16C56.5 15.724 56.276 15.5 56 15.5ZM55.5 47.5H8.5V16.5H55.5V47.5Z" fill="#717171"/>
<path d="M32 14.5C33.379 14.5 34.5 13.378 34.5 12C34.5 10.622 33.379 9.5 32 9.5C30.622 9.5 29.5 10.622 29.5 12C29.5 13.378 30.622 14.5 32 14.5ZM32 10.5C32.827 10.5 33.5 11.173 33.5 12C33.5 12.827 32.827 13.5 32 13.5C31.173 13.5 30.5 12.827 30.5 12C30.5 11.173 31.173 10.5 32 10.5Z" fill="#717171"/>
<path d="M20 36.5H27.5V40C27.5 40.276 27.724 40.5 28 40.5H48C48.276 40.5 48.5 40.276 48.5 40V24C48.5 23.724 48.276 23.5 48 23.5H20C19.724 23.5 19.5 23.724 19.5 24V36C19.5 36.276 19.724 36.5 20 36.5ZM32.525 39.5C32.779 36.701 35.136 34.5 38 34.5C40.864 34.5 43.221 36.701 43.475 39.5H32.525ZM47.5 39.5H44.475C44.277 36.912 42.558 34.748 40.211 33.896C41.57 33.12 42.5 31.674 42.5 30C42.5 27.519 40.481 25.5 38 25.5C35.519 25.5 33.5 27.519 33.5 30C33.5 31.674 34.43 33.12 35.789 33.896C33.442 34.749 31.724 36.913 31.525 39.5H28.5V24.5H47.5V39.5ZM38 33.5C36.07 33.5 34.5 31.93 34.5 30C34.5 28.07 36.07 26.5 38 26.5C39.93 26.5 41.5 28.07 41.5 30C41.5 31.93 39.93 33.5 38 33.5ZM27.5 24.5V35.5H20.5V32.5H24C24.276 32.5 24.5 32.276 24.5 32C24.5 31.724 24.276 31.5 24 31.5H20.5V28.5H24C24.276 28.5 24.5 28.276 24.5 28C24.5 27.724 24.276 27.5 24 27.5H20.5V24.5H27.5Z" fill="#FFEE0E"/>
</svg>
