<svg width="34" height="27" viewBox="0 0 34 27" fill="none" xmlns="http://www.w3.org/2000/svg">
<path d="M8.78622 26.5377C7.24272 26.5377 5.97986 26.222 4.99763 25.5906C4.0154 24.9591 3.20857 24.1523 2.57714 23.1701C1.87555 21.9774 1.38444 20.7496 1.1038 19.4867C0.893325 18.1537 0.788086 17.0662 0.788086 16.2243C0.788086 12.7865 1.66508 9.66445 3.41905 6.85809C5.17303 4.05173 7.90923 1.77156 11.6277 0.0175781L12.5748 1.91187C10.3999 2.82394 8.50559 4.2622 6.89193 6.22666C5.34843 8.19111 4.57668 10.1906 4.57668 12.2253C4.57668 13.0672 4.68192 13.8038 4.89239 14.4353C6.01494 13.5232 7.31288 13.0672 8.78622 13.0672C10.6104 13.0672 12.1889 13.6635 13.522 14.8562C14.855 16.0489 15.5215 17.6977 15.5215 19.8024C15.5215 21.7669 14.855 23.3806 13.522 24.6434C12.1889 25.9063 10.6104 26.5377 8.78622 26.5377ZM26.6768 26.5377C25.1333 26.5377 23.8704 26.222 22.8882 25.5906C21.906 24.9591 21.0991 24.1523 20.4677 23.1701C19.7661 21.9774 19.275 20.7496 18.9944 19.4867C18.7839 18.1537 18.6787 17.0662 18.6787 16.2243C18.6787 12.7865 19.5556 9.66445 21.3096 6.85809C23.0636 4.05173 25.7998 1.77156 29.5182 0.0175781L30.4654 1.91187C28.2905 2.82394 26.3962 4.2622 24.7825 6.22666C23.239 8.19111 22.4672 10.1906 22.4672 12.2253C22.4672 13.0672 22.5725 13.8038 22.783 14.4353C23.9055 13.5232 25.2035 13.0672 26.6768 13.0672C28.5009 13.0672 30.0795 13.6635 31.4125 14.8562C32.7456 16.0489 33.4121 17.6977 33.4121 19.8024C33.4121 21.7669 32.7456 23.3806 31.4125 24.6434C30.0795 25.9063 28.5009 26.5377 26.6768 26.5377Z" fill="#0066FF"/>
</svg>
