<svg width="73" height="21" viewBox="0 0 73 21" fill="none" xmlns="http://www.w3.org/2000/svg">
<path d="M12.9908 17.0673V20H0.708486V0.587831H4.17927V17.0673H12.9908ZM23.2282 0.264968C26.0533 0.264968 28.2909 1.1663 29.9411 2.96895C31.6002 4.7716 32.4298 7.2155 32.4298 10.3006C32.4298 13.3858 31.6002 15.8297 29.9411 17.6323C28.2909 19.426 26.0533 20.3229 23.2282 20.3229C20.3942 20.3229 18.1476 19.426 16.4884 17.6323C14.8382 15.8297 14.0132 13.3858 14.0132 10.3006C14.0132 7.2155 14.8382 4.7716 16.4884 2.96895C18.1476 1.1663 20.3942 0.264968 23.2282 0.264968ZM27.3582 5.14828C26.3358 3.86579 24.9591 3.22455 23.2282 3.22455C21.4973 3.22455 20.1207 3.86131 19.0983 5.13483C18.0759 6.40834 17.5647 8.13028 17.5647 10.3006C17.5647 12.462 18.0759 14.1795 19.0983 15.453C20.1207 16.7265 21.4973 17.3633 23.2282 17.3633C24.9591 17.3633 26.3358 16.7265 27.3582 15.453C28.3806 14.1795 28.8918 12.462 28.8918 10.3006C28.8918 8.13925 28.3806 6.4218 27.3582 5.14828ZM52.1918 11.9015C52.1918 14.5382 51.4429 16.601 49.9452 18.0897C48.4564 19.5785 46.3847 20.3229 43.73 20.3229C40.896 20.3229 38.6539 19.4215 37.0037 17.6189C35.3625 15.8073 34.5419 13.3409 34.5419 10.2199C34.5419 7.14375 35.358 4.71779 36.9903 2.94204C38.6315 1.15733 40.8557 0.264968 43.6628 0.264968C45.869 0.264968 47.7389 0.861368 49.2725 2.05417C50.8061 3.24697 51.7299 4.81645 52.0438 6.7626H48.5192C48.1874 5.65051 47.5954 4.78057 46.7434 4.15278C45.8914 3.52499 44.869 3.2111 43.6762 3.2111C41.9274 3.2111 40.5597 3.82543 39.5732 5.05411C38.5867 6.28278 38.0934 7.99127 38.0934 10.1796C38.0934 12.4127 38.6001 14.1705 39.6135 15.453C40.6359 16.7355 42.0216 17.3767 43.7704 17.3767C45.2323 17.3767 46.4251 16.9552 47.3488 16.1122C48.2815 15.2692 48.7613 14.166 48.7882 12.8028L48.8017 12.48H44.1202V9.8298H52.1918V11.9015ZM63.5862 0.264968C66.4112 0.264968 68.6488 1.1663 70.299 2.96895C71.9582 4.7716 72.7878 7.2155 72.7878 10.3006C72.7878 13.3858 71.9582 15.8297 70.299 17.6323C68.6488 19.426 66.4112 20.3229 63.5862 20.3229C60.7521 20.3229 58.5055 19.426 56.8464 17.6323C55.1962 15.8297 54.3711 13.3858 54.3711 10.3006C54.3711 7.2155 55.1962 4.7716 56.8464 2.96895C58.5055 1.1663 60.7521 0.264968 63.5862 0.264968ZM67.7161 5.14828C66.6937 3.86579 65.3171 3.22455 63.5862 3.22455C61.8552 3.22455 60.4786 3.86131 59.4562 5.13483C58.4338 6.40834 57.9226 8.13028 57.9226 10.3006C57.9226 12.462 58.4338 14.1795 59.4562 15.453C60.4786 16.7265 61.8552 17.3633 63.5862 17.3633C65.3171 17.3633 66.6937 16.7265 67.7161 15.453C68.7385 14.1795 69.2497 12.462 69.2497 10.3006C69.2497 8.13925 68.7385 6.4218 67.7161 5.14828Z" fill="white"/>
</svg>
