<svg width="22" height="22" viewBox="0 0 22 22" fill="none" xmlns="http://www.w3.org/2000/svg">
<path d="M6.07201 11.264C6.16001 11.352 6.33601 11.44 6.42401 11.44H15.576C15.752 11.44 15.84 11.352 15.928 11.264C16.016 11.176 16.104 11 16.104 10.912C16.016 8.80002 14.696 6.95202 12.76 6.33602C12.584 6.24802 12.408 6.24802 12.232 6.33602C11.528 6.60002 10.648 6.60002 9.85601 6.33602C9.68001 6.24802 9.50401 6.24802 9.32801 6.33602C7.39201 6.95202 5.98401 8.80002 5.98401 10.912C5.98401 11.088 5.98401 11.176 6.07201 11.264Z" fill="#FFEE0E"/>
<path d="M8.448 2.99194C8.448 4.39994 9.592 5.54394 11 5.54394C12.408 5.54394 13.552 4.39994 13.552 2.99194C13.552 1.58394 12.408 0.439941 11 0.439941C9.592 0.439941 8.448 1.58394 8.448 2.99194Z" fill="#FFEE0E"/>
<path d="M6.24798 21.56H15.664C16.192 21.56 16.632 21.12 16.632 20.592V18.128H17.864C18.304 18.128 18.744 17.864 18.832 17.424L19.712 14.696C19.888 13.992 19.448 13.376 18.744 13.376H3.25598C2.55198 13.376 2.02398 14.08 2.28798 14.696L3.16798 17.424C3.34398 17.864 3.69598 18.128 4.13598 18.128H5.36798V20.592C5.36798 21.12 5.71998 21.56 6.24798 21.56Z" fill="#FFEE0E"/>
</svg>
