<svg width="22" height="22" viewBox="0 0 22 22" fill="none" xmlns="http://www.w3.org/2000/svg">
<path d="M14.1826 10.6626V4.71528C14.1826 3.54926 13.2366 2.60327 12.0779 2.60327H4.30461C3.14593 2.60327 2.19995 3.54926 2.19995 4.71528V10.6626C2.19995 11.8213 3.14593 12.7673 4.30461 12.7673H4.92059V14.2999C4.92059 14.7399 5.17728 15.136 5.58061 15.3046C5.9946 15.479 6.45154 15.3871 6.7686 15.092L9.18125 12.7673H12.0779C13.2366 12.7673 14.1826 11.8213 14.1826 10.6626ZM5.25794 8.62395C4.75194 8.62395 4.34127 8.21329 4.34127 7.70729C4.34127 7.20129 4.75194 6.79062 5.25794 6.79062C5.76394 6.79062 6.17461 7.20129 6.17461 7.70729C6.17461 8.21329 5.76394 8.62395 5.25794 8.62395ZM8.19127 8.62395C7.68527 8.62395 7.2746 8.21329 7.2746 7.70729C7.2746 7.20129 7.68527 6.79062 8.19127 6.79062C8.69727 6.79062 9.10794 7.20129 9.10794 7.70729C9.10794 8.21329 8.69727 8.62395 8.19127 8.62395ZM11.1246 8.62395C10.6186 8.62395 10.2079 8.21329 10.2079 7.70729C10.2079 7.20129 10.6186 6.79062 11.1246 6.79062C11.6306 6.79062 12.0413 7.20129 12.0413 7.70729C12.0413 8.21329 11.6306 8.62395 11.1246 8.62395Z" fill="#FFEE0E"/>
<path d="M17.9739 8.99072H15.6492V12.1294C15.6492 13.288 14.7032 14.234 13.5445 14.234H10.0245V15.5027C10.0245 16.5074 10.8385 17.3214 11.8432 17.3214H14.0652C15.7621 18.8459 15.9268 19.3967 16.6319 19.3967C17.2106 19.3967 17.6512 18.9317 17.6512 18.3774V17.3214H17.9739C18.9786 17.3214 19.7999 16.5074 19.7999 15.5027V10.8094C19.7999 9.80471 18.9786 8.99072 17.9739 8.99072Z" fill="#FFEE0E"/>
</svg>
