<svg width="22" height="22" viewBox="0 0 22 22" fill="none" xmlns="http://www.w3.org/2000/svg">
<path d="M17.952 5.27994C18.304 5.45594 18.656 5.54394 19.008 5.54394C20.416 5.54394 21.56 4.39994 21.56 2.99194C21.56 1.58394 20.416 0.439941 19.008 0.439941C17.6 0.439941 16.456 1.58394 16.456 2.99194C16.456 3.34394 16.544 3.69594 16.72 4.04794L15.664 5.10394C14.344 4.13594 12.76 3.51994 11 3.51994C9.24 3.51994 7.656 4.13594 6.424 5.10394L5.28 4.04794C5.456 3.69594 5.544 3.34394 5.544 2.99194C5.544 1.58394 4.4 0.439941 2.992 0.439941C1.584 0.439941 0.440002 1.58394 0.440002 2.99194C0.440002 4.39994 1.584 5.54394 2.992 5.54394C3.344 5.54394 3.696 5.45594 4.048 5.27994L5.104 6.33594C4.136 7.65594 3.52 9.23994 3.52 10.9999C3.52 12.7599 4.136 14.3439 5.104 15.5759L4.048 16.7199C3.696 16.5439 3.344 16.4559 2.992 16.4559C1.584 16.4559 0.440002 17.5999 0.440002 19.0079C0.440002 20.4159 1.584 21.5599 2.992 21.5599C4.84 21.5599 6.072 19.6239 5.28 17.9519L6.336 16.8959C9.064 19.0079 12.848 19.0079 15.576 16.8959L16.72 18.0399C15.928 19.7119 17.248 21.6479 19.008 21.6479C20.416 21.6479 21.56 20.5039 21.56 19.0959C21.56 17.6879 20.416 16.5439 19.008 16.5439C18.656 16.5439 18.304 16.6319 17.952 16.8079L16.896 15.7519C17.864 14.5199 18.48 12.8479 18.48 11.1759C18.48 9.50394 17.864 7.83194 16.896 6.51194L17.952 5.27994ZM11 6.59994C11.968 6.59994 12.76 7.39194 12.76 8.35994C12.76 9.32794 11.968 10.1199 11 10.1199C10.032 10.1199 9.24 9.32794 9.24 8.35994C9.24 7.39194 10.032 6.59994 11 6.59994ZM13.376 14.6079C13.024 14.6079 8.448 14.6079 8.536 14.6079C7.832 14.6079 7.304 13.9919 7.392 13.2879C7.392 13.1999 7.392 13.1119 7.48 13.0239C7.744 12.4079 8.272 11.7919 8.8 11.4399C8.976 11.4399 9.064 11.4399 9.24 11.4399H9.328C10.296 11.9679 11.528 11.9679 12.496 11.4399H12.584C12.76 11.3519 12.848 11.3519 13.024 11.4399C13.64 11.7919 14.08 12.4079 14.344 13.0239C14.344 13.1119 14.432 13.1999 14.432 13.2879C14.696 13.9039 14.08 14.6079 13.376 14.6079Z" fill="#FFEE0E"/>
</svg>
