<svg width="22" height="23" viewBox="0 0 22 23" fill="none" xmlns="http://www.w3.org/2000/svg">
<path fill-rule="evenodd" clip-rule="evenodd" d="M15.7482 4.88666C15.7482 3.66749 16.7382 2.67749 17.9573 2.67749C19.1765 2.67749 20.1665 3.66749 20.1665 4.88666C20.1665 6.10582 19.1765 7.09582 17.9573 7.09582C16.7382 7.09582 15.7482 6.10582 15.7482 4.88666ZM12.2189 14.3738L14.8681 10.9556L14.8314 10.9739C14.9781 10.7722 15.0056 10.5156 14.9048 10.2864C14.8049 10.0572 14.5839 9.90141 14.3465 9.88308C14.0981 9.85558 13.8515 9.96558 13.7039 10.1672L11.4865 13.0364L8.94645 11.0381C8.79061 10.9189 8.60728 10.8722 8.42395 10.8914C8.24153 10.9189 8.07653 11.0188 7.96561 11.1655L5.2532 14.6956L5.19728 14.7781C5.04145 15.0705 5.11478 15.4463 5.38978 15.6489C5.51811 15.7314 5.65561 15.7864 5.81145 15.7864C6.0232 15.7956 6.22395 15.6847 6.35228 15.5114L8.65311 12.5497L11.2656 14.5122L11.3481 14.5663C11.6414 14.7222 12.0081 14.6497 12.2189 14.3738ZM14.1622 4.30948C14.1256 4.53864 14.1072 4.76781 14.1072 4.99698C14.1072 7.05948 15.7756 8.72689 17.8289 8.72689C18.0581 8.72689 18.2781 8.70031 18.5072 8.66364V16.0602C18.5072 19.1686 16.6739 21.0111 13.5572 21.0111H6.78399C3.6664 21.0111 1.83307 19.1686 1.83307 16.0602V9.27781C1.83307 6.16114 3.6664 4.30948 6.78399 4.30948H14.1622Z" fill="#FFEE0E"/>
</svg>
