<svg width="64" height="67" viewBox="0 0 64 67" fill="none" xmlns="http://www.w3.org/2000/svg">
<g filter="url(#filter0_d_177_181)">
<path d="M54 15.6418C44.916 15.6418 40.5 12.5348 40.5 6.14185C40.5 5.86585 40.276 5.64185 40 5.64185H24C23.724 5.64185 23.5 5.86585 23.5 6.14185C23.5 12.5348 19.084 15.6418 10 15.6418C9.724 15.6418 9.5 15.8658 9.5 16.1418V34.1418C9.5 44.2418 30.823 57.9828 31.731 58.5628C31.813 58.6158 31.906 58.6418 32 58.6418C32.094 58.6418 32.187 58.6158 32.269 58.5628C33.177 57.9828 54.5 44.2418 54.5 34.1418V16.1418C54.5 15.8658 54.276 15.6418 54 15.6418ZM53.5 34.1418C53.5 43.1128 34.502 55.9008 32 57.5448C29.499 55.9008 10.5 43.1128 10.5 34.1418V16.6388C19.562 16.5208 24.265 13.1598 24.491 6.64185H39.509C39.736 13.1588 44.439 16.5198 53.5 16.6388V34.1418Z" fill="#717171"/>
<path d="M38 29.6418H36.5V26.1418C36.5 23.6608 34.481 21.6418 32 21.6418C30.798 21.6418 29.668 22.1098 28.818 22.9598C28.623 23.1548 28.623 23.4718 28.818 23.6668C29.013 23.8618 29.33 23.8618 29.525 23.6668C30.186 23.0058 31.065 22.6418 32 22.6418C33.93 22.6418 35.5 24.2118 35.5 26.1418V29.6418H26C25.724 29.6418 25.5 29.8658 25.5 30.1418V40.1418C25.5 40.4178 25.724 40.6418 26 40.6418H38C38.276 40.6418 38.5 40.4178 38.5 40.1418V30.1418C38.5 29.8658 38.276 29.6418 38 29.6418ZM37.5 39.6418H26.5V30.6418H37.5V39.6418Z" fill="#FFEE0E"/>
</g>
<defs>
<filter id="filter0_d_177_181" x="-4" y="0.141846" width="72" height="72" filterUnits="userSpaceOnUse" color-interpolation-filters="sRGB">
<feFlood flood-opacity="0" result="BackgroundImageFix"/>
<feColorMatrix in="SourceAlpha" type="matrix" values="0 0 0 0 0 0 0 0 0 0 0 0 0 0 0 0 0 0 127 0" result="hardAlpha"/>
<feOffset dy="4"/>
<feGaussianBlur stdDeviation="2"/>
<feComposite in2="hardAlpha" operator="out"/>
<feColorMatrix type="matrix" values="0 0 0 0 0 0 0 0 0 0 0 0 0 0 0 0 0 0 0.25 0"/>
<feBlend mode="normal" in2="BackgroundImageFix" result="effect1_dropShadow_177_181"/>
<feBlend mode="normal" in="SourceGraphic" in2="effect1_dropShadow_177_181" result="shape"/>
</filter>
</defs>
</svg>
