<svg width="64" height="64" viewBox="0 0 64 64" fill="none" xmlns="http://www.w3.org/2000/svg">
<path d="M56 9.5H8C7.724 9.5 7.5 9.724 7.5 10C7.5 10.276 7.724 10.5 8 10.5H9.5V44C9.5 44.276 9.724 44.5 10 44.5H31.5V55.5H26C25.724 55.5 25.5 55.724 25.5 56C25.5 56.276 25.724 56.5 26 56.5H38C38.276 56.5 38.5 56.276 38.5 56C38.5 55.724 38.276 55.5 38 55.5H32.5V44.5H54C54.276 44.5 54.5 44.276 54.5 44V10.5H56C56.276 10.5 56.5 10.276 56.5 10C56.5 9.724 56.276 9.5 56 9.5ZM53.5 43.5H10.5V10.5H53.5V43.5Z" fill="#717171"/>
<path d="M20 34.5C20.095 34.5 20.191 34.473 20.277 34.416L26 30.601L31.723 34.416C31.847 34.499 32.002 34.521 32.143 34.479C32.285 34.436 32.401 34.333 32.46 34.197L38.169 20.876L43.647 26.354C43.842 26.549 44.159 26.549 44.354 26.354C44.549 26.159 44.549 25.842 44.354 25.647L38.354 19.647C38.237 19.53 38.069 19.48 37.906 19.509C37.743 19.541 37.606 19.651 37.541 19.803L31.778 33.251L26.278 29.584C26.11 29.472 25.891 29.472 25.723 29.584L19.723 33.584C19.493 33.737 19.431 34.048 19.584 34.277C19.68 34.422 19.839 34.5 20 34.5Z" fill="#FFEE0E"/>
</svg>
