<svg width="64" height="64" viewBox="0 0 64 64" fill="none" xmlns="http://www.w3.org/2000/svg">
<path d="M32 15.5C22.902 15.5 15.5 22.902 15.5 32C15.5 38.637 19.414 44.551 25.5 47.159V56C25.5 56.276 25.724 56.5 26 56.5H38C38.276 56.5 38.5 56.276 38.5 56V47.159C44.586 44.551 48.5 38.637 48.5 32C48.5 22.902 41.098 15.5 32 15.5ZM37.5 51.576L26.5 53.41V50.424L37.5 48.59V51.576ZM26.5 55.5V54.424L37.5 52.59V55.5H26.5ZM37.812 46.362C37.623 46.439 37.5 46.622 37.5 46.826V47.576L26.5 49.41V46.826C26.5 46.622 26.376 46.439 26.188 46.362C20.303 43.979 16.5 38.341 16.5 32C16.5 23.453 23.453 16.5 32 16.5C40.547 16.5 47.5 23.453 47.5 32C47.5 38.341 43.697 43.979 37.812 46.362Z" fill="#717171"/>
<path d="M32 21.5C31.724 21.5 31.5 21.724 31.5 22C31.5 22.276 31.724 22.5 32 22.5C37.238 22.5 41.5 26.762 41.5 32C41.5 32.276 41.724 32.5 42 32.5C42.276 32.5 42.5 32.276 42.5 32C42.5 26.21 37.79 21.5 32 21.5Z" fill="#FFEE0E"/>
<path d="M32 10.5C32.276 10.5 32.5 10.276 32.5 10V6C32.5 5.724 32.276 5.5 32 5.5C31.724 5.5 31.5 5.724 31.5 6V10C31.5 10.276 31.724 10.5 32 10.5Z" fill="#717171"/>
<path d="M58 31.5H54C53.724 31.5 53.5 31.724 53.5 32C53.5 32.276 53.724 32.5 54 32.5H58C58.276 32.5 58.5 32.276 58.5 32C58.5 31.724 58.276 31.5 58 31.5Z" fill="#717171"/>
<path d="M10 31.5H6C5.724 31.5 5.5 31.724 5.5 32C5.5 32.276 5.724 32.5 6 32.5H10C10.276 32.5 10.5 32.276 10.5 32C10.5 31.724 10.276 31.5 10 31.5Z" fill="#717171"/>
<path d="M50.031 13.262L47.203 16.091C47.008 16.286 47.008 16.603 47.203 16.798C47.301 16.896 47.429 16.944 47.557 16.944C47.685 16.944 47.813 16.895 47.911 16.798L50.739 13.969C50.934 13.774 50.934 13.457 50.739 13.262C50.544 13.067 50.227 13.066 50.031 13.262Z" fill="#717171"/>
<path d="M16.09 47.203L13.262 50.031C13.067 50.226 13.067 50.543 13.262 50.738C13.36 50.836 13.488 50.884 13.616 50.884C13.744 50.884 13.872 50.835 13.97 50.738L16.798 47.91C16.993 47.715 16.993 47.398 16.798 47.203C16.603 47.008 16.285 47.008 16.09 47.203Z" fill="#717171"/>
<path d="M47.91 47.203C47.715 47.008 47.398 47.008 47.203 47.203C47.008 47.398 47.008 47.715 47.203 47.91L50.031 50.738C50.129 50.836 50.257 50.884 50.385 50.884C50.513 50.884 50.641 50.835 50.739 50.738C50.934 50.543 50.934 50.226 50.739 50.031L47.91 47.203Z" fill="#717171"/>
<path d="M16.0899 16.797C16.1879 16.895 16.3159 16.943 16.4439 16.943C16.5719 16.943 16.6999 16.894 16.798 16.797C16.9929 16.602 16.9929 16.285 16.798 16.09L13.9699 13.261C13.7749 13.066 13.4579 13.066 13.2629 13.261C13.0679 13.456 13.0679 13.773 13.2629 13.968L16.0899 16.797Z" fill="#717171"/>
</svg>
